<svg width="28" height="28" viewBox="0 0 28 28" fill="none" xmlns="http://www.w3.org/2000/svg">
<path d="M2.33203 14.0013C2.33203 9.6018 2.33203 7.40147 3.69936 6.0353C5.06553 4.66797 7.26586 4.66797 11.6654 4.66797H16.332C20.7315 4.66797 22.9319 4.66797 24.298 6.0353C25.6654 7.40147 25.6654 9.6018 25.6654 14.0013V16.3346C25.6654 20.7341 25.6654 22.9345 24.298 24.3006C22.9319 25.668 20.7315 25.668 16.332 25.668H11.6654C7.26586 25.668 5.06553 25.668 3.69936 24.3006C2.33203 22.9345 2.33203 20.7341 2.33203 16.3346V14.0013Z" stroke="#0C091F" stroke-width="2"/>
<path d="M8.16406 4.66797V2.91797M19.8307 4.66797V2.91797M2.91406 10.5013H25.0807" stroke="#0C091F" stroke-width="2" stroke-linecap="round"/>
<path d="M20 19.8333C20 19.8775 19.9824 19.9199 19.9512 19.9512C19.9199 19.9824 19.8775 20 19.8333 20C19.7891 20 19.7467 19.9824 19.7155 19.9512C19.6842 19.9199 19.6667 19.8775 19.6667 19.8333C19.6667 19.7891 19.6842 19.7467 19.7155 19.7155C19.7467 19.6842 19.7891 19.6667 19.8333 19.6667C19.8775 19.6667 19.9199 19.6842 19.9512 19.7155C19.9824 19.7467 20 19.7891 20 19.8333ZM20 15.1667C20 15.2109 19.9824 15.2533 19.9512 15.2845C19.9199 15.3158 19.8775 15.3333 19.8333 15.3333C19.7891 15.3333 19.7467 15.3158 19.7155 15.2845C19.6842 15.2533 19.6667 15.2109 19.6667 15.1667C19.6667 15.1225 19.6842 15.0801 19.7155 15.0488C19.7467 15.0176 19.7891 15 19.8333 15C19.8775 15 19.9199 15.0176 19.9512 15.0488C19.9824 15.0801 20 15.1225 20 15.1667ZM14.1667 19.8333C14.1667 19.8775 14.1491 19.9199 14.1179 19.9512C14.0866 19.9824 14.0442 20 14 20C13.9558 20 13.9134 19.9824 13.8821 19.9512C13.8509 19.9199 13.8333 19.8775 13.8333 19.8333C13.8333 19.7891 13.8509 19.7467 13.8821 19.7155C13.9134 19.6842 13.9558 19.6667 14 19.6667C14.0442 19.6667 14.0866 19.6842 14.1179 19.7155C14.1491 19.7467 14.1667 19.7891 14.1667 19.8333ZM14.1667 15.1667C14.1667 15.2109 14.1491 15.2533 14.1179 15.2845C14.0866 15.3158 14.0442 15.3333 14 15.3333C13.9558 15.3333 13.9134 15.3158 13.8821 15.2845C13.8509 15.2533 13.8333 15.2109 13.8333 15.1667C13.8333 15.1225 13.8509 15.0801 13.8821 15.0488C13.9134 15.0176 13.9558 15 14 15C14.0442 15 14.0866 15.0176 14.1179 15.0488C14.1491 15.0801 14.1667 15.1225 14.1667 15.1667ZM8.33333 19.8333C8.33333 19.8775 8.31577 19.9199 8.28452 19.9512C8.25326 19.9824 8.21087 20 8.16667 20C8.12246 20 8.08007 19.9824 8.04882 19.9512C8.01756 19.9199 8 19.8775 8 19.8333C8 19.7891 8.01756 19.7467 8.04882 19.7155C8.08007 19.6842 8.12246 19.6667 8.16667 19.6667C8.21087 19.6667 8.25326 19.6842 8.28452 19.7155C8.31577 19.7467 8.33333 19.7891 8.33333 19.8333ZM8.33333 15.1667C8.33333 15.2109 8.31577 15.2533 8.28452 15.2845C8.25326 15.3158 8.21087 15.3333 8.16667 15.3333C8.12246 15.3333 8.08007 15.3158 8.04882 15.2845C8.01756 15.2533 8 15.2109 8 15.1667C8 15.1225 8.01756 15.0801 8.04882 15.0488C8.08007 15.0176 8.12246 15 8.16667 15C8.21087 15 8.25326 15.0176 8.28452 15.0488C8.31577 15.0801 8.33333 15.1225 8.33333 15.1667Z" fill="#0C091F" stroke="#0C091F" stroke-width="2"/>
</svg>
