<svg width="282" height="80" viewBox="0 0 282 80" fill="none" xmlns="http://www.w3.org/2000/svg">
<g clip-path="url(#clip0_1_1603)">
<path d="M189.914 63.7052C137.787 63.7052 85.7183 63.7052 33.6406 63.7052C33.6406 47.9055 33.6406 32.1059 33.6406 16.2947C103.636 16.2947 173.64 16.2947 243.641 16.2947C243.641 32.0982 243.641 47.9017 243.641 63.7052C225.749 63.7052 207.861 63.7052 189.914 63.7052ZM53.2396 57.7321C53.2249 57.718 53.2102 57.7039 53.2326 57.6216C54.252 56.6332 55.2019 55.5569 56.31 54.6809C57.443 53.7852 57.8656 52.7734 57.7235 51.3413C57.5864 49.959 57.6938 48.5524 57.6938 47.004C56.8299 47.004 56.1368 47.0139 55.4441 47.0012C54.7102 46.9878 54.1443 46.6543 53.734 46.0485C53.0682 45.0655 53.1559 44.1122 54.0718 43.0834C54.9512 42.0956 55.8487 41.1217 56.7806 40.1838C57.2465 39.7149 57.4307 39.1803 57.4228 38.5589C57.4054 37.1975 57.374 35.8363 57.3371 34.4753C57.3188 33.8047 57.1254 33.622 56.4504 33.5929C56.1784 33.5811 55.9038 33.6001 55.6341 33.5704C54.8467 33.4834 54.1849 33.1638 53.7136 32.4984C52.8791 31.3203 52.8737 29.9812 53.8435 28.9156C54.6654 28.0124 55.6205 27.2316 56.4853 26.3653C56.7739 26.0762 57.154 25.6976 57.1677 25.3472C57.2187 24.0483 57.1807 22.7407 57.0856 21.443C57.0129 20.4503 56.4658 19.9589 55.4486 19.8827C54.5191 19.8131 53.5839 19.8068 52.651 19.7999C51.2719 19.7897 51.2601 19.8 51.2594 21.2172C51.2578 24.72 51.2653 28.2228 51.2752 31.7255C51.278 32.7548 51.2712 32.764 50.2289 32.7536C47.8404 32.7299 45.4512 32.5864 43.0714 32.9757C40.8502 33.3391 39.1036 34.907 38.6335 37.1239C38.4611 37.9371 38.3422 38.7757 38.3258 39.6052C38.2853 41.6474 38.3126 43.691 38.3246 45.734C38.3296 46.5787 38.4222 46.653 39.2769 46.6508C41.3376 46.6456 43.3984 46.6421 45.4592 46.637C47.1303 46.6328 48.8017 46.6072 50.4724 46.6309C51.2414 46.6418 51.2427 46.685 51.2446 47.4801C51.2535 51.1969 51.2612 54.9137 51.2695 58.6306C51.2712 59.3982 51.3058 59.4678 52.0902 59.4784C53.8217 59.5019 55.5537 59.4827 57.2854 59.4948C57.6692 59.4975 57.7937 59.3387 57.788 58.9685C57.7705 57.8401 57.786 56.7112 57.7705 55.5827C57.763 55.0382 57.7148 54.4943 57.6801 53.8603C57.0871 54.3986 56.5878 54.8603 56.0792 55.3116C55.1497 56.1364 54.2147 56.9549 53.2396 57.7321ZM59.1539 52.6209C58.6939 52.8834 58.6038 53.2727 58.6309 53.7891C58.7075 55.2458 58.7296 56.7057 58.7554 58.1646C58.7826 59.6949 58.567 59.5222 60.1503 59.4909C61.8733 59.457 63.3313 58.8286 64.3446 57.3648C64.9927 56.4284 65.1447 55.3465 65.1586 54.2533C65.1878 51.9574 65.1704 49.661 65.1675 47.3648C65.1665 46.5663 65.1611 46.5912 65.9458 46.5634C68.08 46.4878 70.2342 46.5449 72.3422 46.2629C75.5078 45.8395 77.8486 43.1816 78.0084 39.9967C78.1254 37.6674 78.0866 35.3302 78.114 32.9965C78.1145 32.947 78.0752 32.897 78.0384 32.8089C77.8268 32.8089 77.6153 32.809 77.4038 32.8089C73.5897 32.8082 69.7756 32.8071 65.9615 32.8069C65.1882 32.8069 65.1893 32.8084 65.1877 32.0647C65.181 28.8733 65.1741 25.6818 65.1651 22.4904C65.1646 22.3314 65.1443 22.1724 65.1259 21.9087C62.5465 24.1278 60.0549 26.2714 57.5632 28.4151C57.5981 28.4665 57.633 28.5178 57.6679 28.5692C58.0159 28.5692 58.3639 28.5687 58.7119 28.5694C59.1296 28.5702 59.352 28.7212 59.3235 29.1978C59.2816 29.8963 59.3118 30.5988 59.2866 31.2986C59.274 31.6494 59.4087 31.793 59.7555 31.7971C60.2416 31.8029 60.7281 31.8254 61.2132 31.8588C62.0972 31.9195 62.7497 32.3441 63.1719 33.1277C63.8131 34.318 63.5565 35.6747 62.5312 36.6287C61.0088 38.0452 59.4995 39.476 57.9861 40.9023C57.8952 40.988 57.8175 41.0877 57.6732 41.248C57.9749 41.248 58.1886 41.2827 58.3865 41.2415C58.9804 41.118 59.1275 41.3691 59.1051 41.9288C59.0598 43.056 59.1007 44.1867 59.0529 45.3137C59.029 45.8749 59.1525 46.1498 59.7779 46.0911C60.1396 46.0572 60.5129 46.1444 60.8808 46.1785C61.7663 46.2606 62.3498 46.7593 62.6834 47.5493C63.0069 48.3156 62.9197 49.0674 62.3228 49.6574C61.3145 50.654 60.258 51.6018 59.1539 52.6209ZM99.8823 31.4092C99.8964 31.8175 99.916 32.2258 99.9236 32.6342C99.9373 33.364 99.8264 33.5259 99.1139 33.5348C97.1688 33.5592 95.223 33.5609 93.2778 33.5404C92.521 33.5325 92.452 33.4368 92.4835 32.6642C92.5571 30.8571 92.6402 29.0502 92.7417 27.2445C92.7663 26.8076 92.6269 26.6698 92.1881 26.6766C90.6923 26.6996 89.1954 26.7087 87.7001 26.6735C87.1378 26.6603 87.0044 26.8652 87.0255 27.3881C87.1341 30.0706 87.2893 32.7543 87.285 35.4374C87.2801 38.4901 87.1328 41.5429 87.0256 44.5949C87.0061 45.1507 87.2122 45.3835 87.7571 45.3807C89.1572 45.3734 90.5575 45.3898 91.9575 45.3767C92.6406 45.3703 92.7329 45.2658 92.719 44.5817C92.6805 42.695 92.6263 40.8085 92.5877 38.9217C92.5704 38.0742 92.6315 37.9973 93.4507 37.9911C95.2786 37.9771 97.1067 37.9769 98.9346 37.991C99.7467 37.9972 99.8311 38.095 99.8078 38.9198C99.7545 40.8059 99.6805 42.6914 99.6281 44.5775C99.6077 45.311 99.6648 45.3723 100.424 45.3788C101.785 45.3904 103.146 45.3893 104.507 45.368C105.351 45.3548 105.362 45.3335 105.341 44.5098C105.263 41.3792 105.121 38.249 105.111 35.1183C105.103 32.5324 105.24 29.9458 105.332 27.3601C105.35 26.8551 105.184 26.6675 104.667 26.6766C103.23 26.7018 101.792 26.7022 100.355 26.6762C99.8563 26.6672 99.7067 26.8549 99.7299 27.3278C99.7945 28.6487 99.8306 29.9711 99.8823 31.4092ZM198.503 45.4652C199.106 45.4528 199.71 45.4613 200.311 45.4229C201.093 45.3728 201.132 45.3215 201.126 44.5498C201.109 42.3707 201.099 40.1914 201.055 38.0129C201.042 37.3674 201.359 36.9973 201.884 36.7424C202.092 36.642 202.317 36.5784 202.535 36.5024C203.844 36.0471 204.776 36.6889 204.77 38.0603C204.759 40.2201 204.743 42.3801 204.704 44.5395C204.694 45.0969 204.887 45.3856 205.462 45.39C206.589 45.3986 207.717 45.4088 208.844 45.4336C209.444 45.4468 209.646 45.1782 209.643 44.5831C209.627 41.6644 209.649 38.7456 209.649 35.8268C209.649 34.2007 208.776 33.0222 207.227 32.5073C205.355 31.8854 203.67 32.3292 202.089 33.3898C201.774 33.6009 201.456 33.8079 201.07 34.063C201.043 33.8194 201.012 33.673 201.014 33.527C201.029 32.3403 201.038 31.1533 201.073 29.967C201.103 28.9365 201.164 27.907 201.212 26.877C201.226 26.5782 201.216 26.3319 200.788 26.3753C199.299 26.5263 197.809 26.6593 196.318 26.7935C195.934 26.8281 195.808 26.9807 195.838 27.3995C195.99 29.4728 196.172 31.548 196.206 33.6248C196.266 37.2625 196.237 40.9019 196.217 44.5404C196.214 45.1257 196.458 45.3576 196.99 45.389C197.456 45.4164 197.922 45.4403 198.503 45.4652ZM127.149 44.6569C129.595 46.1645 131.88 46.0308 134.028 43.8264C134.105 44.285 134.16 44.5998 134.211 44.9152C134.271 45.2846 134.421 45.4973 134.86 45.474C135.986 45.4142 137.115 45.3935 138.243 45.3649C138.713 45.3529 138.898 45.1144 138.88 44.6588C138.854 43.9981 138.876 43.3345 138.826 42.6758C138.601 39.6633 138.478 36.6553 139.087 33.6679C139.153 33.343 139.058 33.1535 138.711 33.0866C137.587 32.8699 136.466 32.6407 135.345 32.4128C134.969 32.3365 134.814 32.5638 134.713 32.8617C134.622 33.1317 134.543 33.406 134.485 33.5933C133.814 33.1869 133.217 32.6884 132.53 32.4344C130.26 31.5957 127.237 32.5559 125.751 34.4677C123.731 37.0667 123.649 42.0871 127.149 44.6569ZM155.651 34.8422C155.557 38.0302 155.46 41.2181 155.37 44.4063C155.345 45.2923 155.392 45.3732 156.248 45.388C157.627 45.4119 159.007 45.3704 160.386 45.3796C160.953 45.3835 161.156 45.1794 161.133 44.5839C161.026 41.7465 160.946 38.9078 160.89 36.0689C160.856 34.3454 160.883 32.6207 160.883 31.0274C162.262 31.0274 163.503 31.0044 164.743 31.0387C165.241 31.0524 165.379 30.9082 165.347 30.4119C165.278 29.3686 165.274 28.3211 165.246 27.2752C165.24 27.0489 165.245 26.8222 165.245 26.5332C164.738 26.5572 164.314 26.5608 163.893 26.5999C160.031 26.9592 156.166 27.0474 152.302 26.6597C151.777 26.607 151.617 26.7863 151.552 27.2522C151.389 28.4225 151.196 29.5888 151.019 30.7574C151.002 30.8684 151.017 30.9842 151.017 31.2106C152.531 31.1231 154.012 31.0374 155.649 30.9427C155.649 32.2134 155.649 33.4737 155.651 34.8422ZM212.912 37.7115C212.894 37.8857 212.87 38.0594 212.859 38.2339C212.683 41.0693 213.695 43.4461 216.235 44.8306C217.886 45.7312 219.676 45.851 221.505 45.65C222.845 45.5028 224.091 45.1057 225.103 44.1699C225.273 44.0132 225.503 43.7168 225.455 43.5634C225.13 42.5261 224.626 41.5776 223.873 40.7678C223.59 40.9374 223.356 41.0749 223.125 41.2167C222.079 41.8583 220.951 42.1294 219.726 41.9833C218.533 41.8411 217.694 41.2347 217.49 40.3177C217.801 40.2883 218.106 40.2578 218.412 40.2306C220.426 40.0517 222.442 39.893 224.454 39.6878C225.651 39.5656 225.982 39.1466 225.943 37.9422C225.884 36.1125 225.144 34.5877 223.772 33.3999C221.785 31.6801 219.484 31.4498 217.101 32.3054C214.651 33.1852 213.355 35.0845 212.912 37.7115ZM112.844 32.3502C110.378 33.4093 109.07 35.3388 108.796 37.9506C108.516 40.6264 109.269 42.9284 111.596 44.504C113.345 45.6882 115.321 45.8712 117.358 45.6577C118.736 45.5133 120.028 45.1178 121.048 44.1201C121.214 43.9576 121.388 43.6171 121.327 43.4384C120.992 42.4648 120.508 41.5627 119.787 40.7664C119.445 40.9704 119.139 41.1716 118.816 41.3425C117.406 42.0896 115.953 42.3066 114.455 41.622C113.916 41.3758 113.492 40.9996 113.38 40.3192C113.684 40.2885 113.952 40.259 114.22 40.235C116.311 40.0475 118.403 39.873 120.493 39.6693C121.524 39.5689 121.826 39.2074 121.839 38.156C121.863 36.2491 121.116 34.6664 119.704 33.4262C117.692 31.6582 115.377 31.516 112.844 32.3502ZM176.013 41.971C175.11 42.0799 174.224 42.0422 173.396 41.6179C172.872 41.349 172.442 40.9909 172.338 40.3183C172.648 40.2876 172.917 40.2586 173.186 40.2344C175.277 40.0468 177.37 39.8714 179.459 39.6683C180.463 39.5709 180.788 39.1759 180.805 38.149C180.843 35.7401 179.34 33.3797 177.106 32.4042C173.652 30.8969 168.651 32.4116 167.828 37.4665C167.367 40.296 168.045 42.7764 170.534 44.4883C172.292 45.6977 174.29 45.8751 176.348 45.6518C177.728 45.5022 179.012 45.0966 180.032 44.0987C180.181 43.9537 180.361 43.6693 180.311 43.5217C179.972 42.5107 179.478 41.5771 178.837 40.8666C177.866 41.2563 176.991 41.6075 176.013 41.971ZM184.492 40.455C184.47 41.2325 184.421 42.0104 184.434 42.7874C184.454 44.0712 185.178 45.0262 186.417 45.3442C188.502 45.8794 190.501 45.5901 192.386 44.5637C192.575 44.4606 192.772 44.2058 192.799 43.9996C192.9 43.2302 192.919 42.4504 192.994 41.6771C193.041 41.1936 192.811 41.1014 192.405 41.1809C191.929 41.2739 191.455 41.3946 190.974 41.4416C189.93 41.5439 189.314 41.1174 189.239 40.1858C189.162 39.2377 189.173 38.2822 189.154 37.3298C189.147 36.9854 189.277 36.8094 189.677 36.8279C190.473 36.8647 191.272 36.8344 192.068 36.8578C192.474 36.8697 192.603 36.719 192.604 36.3117C192.606 35.3216 192.642 34.3307 192.7 33.3422C192.724 32.9245 192.635 32.7238 192.171 32.7554C191.415 32.8071 190.656 32.8242 189.899 32.8476C189.237 32.868 189.098 32.7523 189.122 32.0825C189.154 31.1697 189.21 30.2565 189.297 29.3474C189.341 28.8948 189.184 28.7275 188.744 28.6736C187.627 28.5367 186.514 28.3681 185.401 28.1958C184.523 28.0597 184.443 28.0998 184.428 29.0277C184.41 30.1163 184.446 31.2056 184.436 32.2944C184.429 33.1182 184.409 33.0958 183.602 33.2177C183.39 33.2497 183.043 33.4592 183.036 33.6005C182.987 34.6227 183.01 35.6482 183.01 36.7042C183.287 36.72 183.496 36.7363 183.706 36.7432C184.419 36.7666 184.558 36.9011 184.55 37.604C184.539 38.518 184.517 39.4319 184.492 40.455ZM148.014 31.6801C148.089 30.2039 148.149 28.7267 148.247 27.252C148.278 26.7818 148.128 26.6514 147.664 26.6605C146.225 26.6886 144.785 26.69 143.346 26.6608C142.813 26.65 142.687 26.8198 142.743 27.3407C142.89 28.6925 143.062 30.0504 143.069 31.4067C143.094 35.783 143.048 40.1598 143.031 44.5364C143.029 45.306 143.066 45.3748 143.853 45.3965C144.96 45.427 146.068 45.4242 147.175 45.3919C148.005 45.3677 147.992 45.337 147.992 44.508C147.994 40.2689 148.003 36.0298 148.014 31.6801ZM234.066 42.8442C234.061 41.5595 234.038 40.2744 234.057 38.99C234.071 37.9732 234.395 37.6016 235.392 37.5157C236.046 37.4593 236.71 37.52 237.37 37.5302C237.809 37.5369 238.051 37.3787 238.059 36.8841C238.08 35.6404 238.119 34.3961 238.192 33.1546C238.221 32.6715 238.001 32.479 237.592 32.533C236.905 32.6239 236.202 32.7111 235.552 32.9346C234.922 33.1514 234.35 33.538 233.699 33.8774C233.638 33.4748 233.572 33.114 233.531 32.7505C233.486 32.3629 233.31 32.2202 232.908 32.2903C231.626 32.5143 230.34 32.7198 229.054 32.9197C228.68 32.9777 228.567 33.1319 228.669 33.5138C229.15 35.3139 229.244 37.1581 229.238 39.0096C229.232 40.8783 229.214 42.747 229.191 44.6156C229.186 45.0365 229.265 45.3612 229.773 45.3632C231.077 45.3681 232.38 45.3706 233.683 45.3726C234.05 45.3732 234.208 45.1934 234.18 44.822C234.134 44.2012 234.105 43.579 234.066 42.8442ZM173.667 55.237C173.667 54.3702 173.667 53.5034 173.667 52.4457C173.296 52.6575 173.071 52.7862 172.816 52.9316C171.611 51.9173 170.174 52.6368 169.758 53.7869C169.635 54.129 169.561 54.4992 169.529 54.8623C169.412 56.1851 170.166 57.2264 171.374 57.3145C171.845 57.3489 172.333 57.1462 172.956 57.0234C172.84 57.472 172.848 58.038 172.575 58.3778C171.854 59.2765 170.813 58.8629 169.89 58.7936C169.736 59.2237 169.893 59.4008 170.27 59.4994C172.383 60.0516 173.667 59.086 173.667 56.9283C173.667 56.4035 173.667 55.8786 173.667 55.237ZM139.102 54.3026C139.102 55.2673 139.102 56.2321 139.102 57.2421C139.413 57.2265 139.636 57.2154 139.934 57.2005C139.934 56.1887 139.934 55.23 139.934 54.2833C141.093 54.2833 142.174 54.2833 143.325 54.2833C143.325 55.2802 143.325 56.2409 143.325 57.1788C143.9 57.3408 144.136 57.2232 144.125 56.6253C144.093 54.8549 144.113 53.0835 144.113 51.3125C144.113 51.1277 144.113 50.943 144.113 50.761C143.795 50.761 143.573 50.761 143.277 50.761C143.277 51.7033 143.277 52.6055 143.277 53.493C142.121 53.493 141.04 53.493 139.885 53.493C139.885 52.553 139.885 51.6518 139.885 50.7637C139.588 50.7637 139.366 50.7637 139.102 50.7637C139.102 51.9338 139.102 53.0598 139.102 54.3026ZM179.914 50.7195C179.263 50.7195 178.613 50.7195 177.941 50.7195C177.929 50.9827 177.914 51.1543 177.913 51.326C177.912 53.0929 177.911 54.8599 177.913 56.6269C177.914 57.2858 177.978 57.3283 178.739 57.1406C178.739 56.3131 178.739 55.4682 178.739 54.5867C179.054 54.5867 179.31 54.6196 179.554 54.58C180.105 54.4906 180.673 54.4293 181.192 54.2397C181.955 53.9606 182.34 53.2919 182.315 52.5083C182.29 51.7156 181.862 51.1358 181.054 50.884C180.726 50.7818 180.369 50.7727 179.914 50.7195ZM61.9735 48.7653C62.1361 47.9185 61.8023 47.2578 61.0189 47.135C60.3844 47.0355 59.7218 47.1148 59.0151 47.1148C59.0151 48.7544 59.0151 50.3303 59.0151 52.0007C60.1461 51.0099 61.3007 50.1716 61.9735 48.7653ZM55.8745 42.7887C55.4765 43.2132 55.0468 43.6127 54.6874 44.0678C54.0726 44.8465 54.3677 45.7796 55.3426 45.9796C56.0444 46.1235 56.7872 46.0671 57.4503 46.0973C57.4503 44.5313 57.4503 43.0825 57.4503 41.6338C57.3955 41.6121 57.3407 41.5905 57.2859 41.5689C56.8351 41.956 56.3842 42.3432 55.8745 42.7887ZM154.854 52.7788C154.149 52.3706 153.407 52.4354 152.649 52.585C152.206 52.6724 152.116 52.9009 152.281 53.2858C154.423 53.0405 154.897 53.2849 154.698 54.5259C153.674 54.3342 152.619 54.0829 151.957 55.2299C151.648 55.7642 151.819 56.5401 152.259 56.9496C152.855 57.5051 153.689 57.4726 154.615 56.9187C154.899 57.0453 155.109 57.139 155.318 57.2326C155.395 57.0212 155.531 56.8118 155.538 56.5979C155.565 55.8215 155.544 55.0436 155.55 54.2663C155.555 53.6925 155.404 53.1924 154.854 52.7788ZM186.943 56.8356C187.041 57.2718 187.303 57.323 187.696 57.1585C187.696 56.1171 187.704 55.0891 187.694 54.0613C187.686 53.2913 187.302 52.735 186.545 52.5922C186.007 52.4909 185.433 52.543 184.879 52.5794C184.423 52.6092 184.3 52.8834 184.486 53.2982C186.379 52.9317 187.086 53.2865 186.842 54.3907C186.214 54.4195 185.589 54.3713 185 54.4954C184.322 54.6383 183.939 55.2758 183.977 55.9398C184.019 56.673 184.448 57.1495 185.178 57.3063C185.824 57.4448 186.358 57.2152 186.943 56.8356ZM146.514 56.4588C147.284 57.4582 148.332 57.4281 149.423 57.2432C149.891 57.1638 149.967 56.9003 149.802 56.5016C147.833 56.9092 146.793 56.3904 146.987 55.0506C147.998 55.0506 149.019 55.0506 150.065 55.0506C150.065 54.7412 150.092 54.489 150.061 54.2445C149.925 53.2046 149.342 52.5608 148.495 52.4888C147.41 52.3966 146.571 52.9385 146.27 53.961C146.027 54.7875 146.023 55.6081 146.514 56.4588ZM207.727 53.8073C207.536 53.109 207.111 52.6303 206.385 52.5056C205.624 52.3751 204.953 52.5817 204.443 53.1884C203.815 53.9339 203.66 55.5284 204.217 56.3279C204.466 56.6852 204.874 57.052 205.276 57.1547C205.875 57.3078 206.534 57.2649 207.166 57.24C207.594 57.2231 207.777 56.9523 207.606 56.5162C205.483 56.8439 204.665 56.4472 204.694 55.0465C205.733 55.0465 206.775 55.0465 207.891 55.0465C207.842 54.6167 207.801 54.2565 207.727 53.8073ZM125.095 55.0965C125.091 54.8833 125.101 54.6686 125.08 54.4571C124.976 53.4379 124.288 52.6568 123.371 52.504C122.259 52.3188 121.334 52.7826 120.924 53.73C120.448 54.8321 120.712 56.2759 121.524 56.8816C122.213 57.3949 122.98 57.4987 123.776 57.1687C124.641 56.8097 125.002 56.0904 125.095 55.0965ZM115.346 52.0136C115.528 52.3125 115.68 52.6358 115.898 52.906C116.773 53.9933 117.063 55.2215 116.929 56.5983C116.861 57.2922 116.989 57.3467 117.728 57.1352C117.728 56.7757 117.768 56.4018 117.721 56.0395C117.586 55.0169 117.909 54.1534 118.485 53.3222C119.046 52.5138 119.522 51.6468 120.043 50.7928C119.452 50.5872 119.133 50.7791 118.868 51.2691C118.402 52.1281 117.87 52.9509 117.32 53.865C116.743 52.9006 116.206 52.0463 115.716 51.1651C115.459 50.7019 115.14 50.6249 114.624 50.8162C114.865 51.2177 115.082 51.5801 115.346 52.0136ZM129.995 55.7487C129.764 56.5515 129.199 56.8667 128.461 56.6132C127.939 56.4335 127.762 56.037 127.761 55.5266C127.759 54.5624 127.76 53.5982 127.76 52.6429C127.447 52.6429 127.226 52.6429 126.972 52.6429C126.972 53.6976 126.935 54.7077 126.983 55.7137C127.03 56.6904 127.719 57.2826 128.767 57.3545C129.78 57.4238 130.653 56.8745 130.737 55.9401C130.834 54.8484 130.76 53.7413 130.76 52.6389C130.503 52.6389 130.282 52.6389 130.003 52.6389C130.003 53.669 130.003 54.657 129.995 55.7487ZM163.793 52.845C163.793 54.2764 163.793 55.7078 163.793 57.1519C164.089 57.1519 164.307 57.1519 164.569 57.1519C164.569 56.1588 164.562 55.21 164.572 54.2614C164.577 53.7133 165.259 53.1327 165.896 53.1108C166.451 53.0917 166.761 53.3786 166.83 54.0656C166.882 54.5851 166.867 55.1119 166.873 55.6355C166.879 56.1344 166.874 56.6333 166.874 57.1592C167.151 57.1592 167.351 57.1592 167.589 57.1592C167.589 55.9824 167.636 54.8385 167.572 53.7009C167.528 52.9263 166.97 52.4411 166.195 52.5052C165.633 52.5517 165.089 52.8083 164.506 52.9802C164.45 52.6186 164.253 52.3837 163.793 52.845ZM201.527 52.8462C200.594 52.1773 199.744 52.4432 198.91 53.1357C198.782 52.7655 198.673 52.3882 198.212 52.6854C198.212 54.1787 198.212 55.651 198.212 57.1591C198.447 57.1591 198.648 57.1591 198.913 57.1591C198.913 56.2595 198.912 55.3882 198.913 54.5169C198.913 53.7729 199.424 53.2032 200.165 53.1177C200.664 53.0602 201.076 53.3087 201.128 53.817C201.206 54.5682 201.197 55.3286 201.217 56.0853C201.227 56.4443 201.219 56.8039 201.219 57.1636C201.512 57.1636 201.699 57.1636 201.928 57.1636C201.928 55.9702 201.947 54.8073 201.912 53.646C201.905 53.3979 201.702 53.1557 201.527 52.8462ZM59.2068 36.4237C59.2068 36.7617 59.2068 37.0996 59.2068 37.4376C59.2651 37.463 59.3234 37.4883 59.3818 37.5137C60.1453 36.6774 60.9465 35.8716 61.6587 34.9936C62.1064 34.4415 61.8452 33.8366 61.1409 33.6812C60.7109 33.5864 60.2562 33.6037 59.8125 33.5719C59.4782 33.548 59.3248 33.681 59.3172 34.0399C59.3012 34.7967 59.2468 35.5527 59.2068 36.4237ZM59.5879 20.968C59.5074 21.7729 59.4269 22.5778 59.3465 23.3827C59.4153 23.404 59.4841 23.4253 59.5529 23.4466C60.7664 22.3071 61.9799 21.1677 63.1934 20.0282C62.4916 19.8964 61.8936 19.8804 61.2968 19.9006C60.5696 19.9251 59.9913 20.2288 59.5879 20.968ZM195.182 57.2859C195.415 57.2931 195.648 57.3011 195.881 57.3072C196.379 57.3202 196.547 57.1037 196.364 56.6179C196.155 56.6412 195.964 56.6836 195.773 56.6794C195.366 56.6703 195.001 56.5137 194.983 56.0689C194.944 55.1444 194.971 54.2173 194.971 53.2225C195.448 53.2225 195.865 53.2225 196.336 53.2225C196.324 52.9723 196.315 52.7953 196.304 52.5622C195.82 52.5622 195.401 52.5622 194.927 52.5622C194.927 52.1229 194.927 51.7431 194.927 51.3645C194.664 51.3645 194.462 51.3645 194.24 51.3645C194.221 51.784 194.204 52.1647 194.186 52.563C193.879 52.5888 193.616 52.6108 193.342 52.6337C193.342 52.8351 193.342 52.9997 193.342 53.1588C194.215 53.2925 194.215 53.2925 194.215 54.1767C194.215 54.7801 194.226 55.3836 194.213 55.9867C194.198 56.629 194.454 57.0731 195.182 57.2859ZM158.494 56.2817C158.494 54.2515 158.494 52.2213 158.494 50.1847C158.188 50.1847 157.963 50.1847 157.708 50.1847C157.708 52.5498 157.708 54.8868 157.708 57.2409C157.977 57.2409 158.215 57.2409 158.494 57.2409C158.494 56.9331 158.494 56.6645 158.494 56.2817ZM133.658 53.15C133.496 52.5547 133.496 52.5547 132.961 52.6865C132.961 54.1931 132.961 55.6976 132.961 57.1882C133.535 57.3553 133.767 57.1818 133.715 56.6095C133.679 56.2046 133.708 55.7938 133.708 55.3856C133.708 53.5939 133.708 53.5939 135.44 53.1291C135.44 52.9283 135.44 52.7256 135.44 52.5214C134.707 52.3667 134.219 52.7482 133.658 53.15ZM191.913 53.2472C192.079 53.2144 192.244 53.1816 192.399 53.151C192.399 52.9149 192.399 52.7154 192.399 52.3135C191.725 52.5998 191.166 52.8375 190.597 53.0793C190.557 52.9648 190.495 52.7883 190.428 52.5987C190.249 52.6106 190.101 52.6203 189.931 52.6316C189.931 54.1653 189.931 55.6687 189.931 57.2028C190.166 57.2028 190.368 57.2028 190.629 57.2028C190.629 56.3759 190.629 55.5847 190.629 54.7935C190.629 53.7667 190.821 53.5229 191.913 53.2472ZM210.247 52.6007C210.121 52.698 209.889 52.7936 209.887 52.893C209.863 54.3033 209.871 55.714 209.871 57.1597C210.134 57.1597 210.334 57.1597 210.601 57.1597C210.601 56.3985 210.601 55.6665 210.601 54.9345C210.601 53.7096 210.832 53.4343 212.048 53.2132C212.157 53.1933 212.267 53.1741 212.373 53.1551C212.373 52.92 212.373 52.7195 212.373 52.5157C211.619 52.389 211.106 52.7437 210.642 53.2154C210.538 53.0059 210.44 52.8088 210.247 52.6007ZM57.1945 31.4855C57.1945 30.6256 57.1945 29.7658 57.1945 28.9059C57.1404 28.8779 57.0864 28.8499 57.0323 28.8219C56.4478 29.3731 55.8225 29.8882 55.2923 30.4875C54.8995 30.9316 55.1788 31.6139 55.7632 31.6726C56.2079 31.7173 56.6689 31.5989 57.1945 31.4855ZM161.549 52.8168C161.343 52.7238 161.137 52.6309 160.864 52.5079C160.864 54.1612 160.864 55.6584 160.864 57.1963C161.109 57.1832 161.31 57.1724 161.488 57.163C161.52 57.0636 161.542 57.0277 161.542 56.9917C161.547 55.6369 161.55 54.2821 161.549 52.8168ZM161.511 51.4425C161.511 51.1995 161.511 50.9564 161.511 50.7196C160.832 50.5949 160.677 50.7095 160.763 51.2374C160.839 51.7079 161.18 51.5032 161.511 51.4425Z" fill="#FEFFFF"/>
<path d="M53.4064 57.8958C54.339 57.0748 55.274 56.2565 56.2034 55.4319C56.712 54.9807 57.2113 54.5191 57.8043 53.9809C57.8389 54.6148 57.8871 55.1586 57.8946 55.7029C57.9101 56.8311 57.8946 57.9598 57.9122 59.0879C57.9179 59.4581 57.7933 59.6167 57.4096 59.6141C55.678 59.602 53.9461 59.6212 52.2147 59.5977C51.4303 59.5871 51.3957 59.5176 51.394 58.7501C51.3858 55.0341 51.378 51.3182 51.3692 47.6023C51.3673 46.8075 51.366 46.7642 50.597 46.7533C48.9264 46.7296 47.2551 46.7552 45.584 46.7594C43.5234 46.7646 41.4627 46.768 39.4021 46.7732C38.5475 46.7754 38.4548 46.7011 38.4499 45.8567C38.4379 43.8142 38.4106 41.771 38.4511 39.7293C38.4675 38.9 38.5864 38.0616 38.7588 37.2486C39.2289 35.0322 40.9754 33.4647 43.1964 33.1014C45.576 32.7122 47.9651 32.8557 50.3535 32.8794C51.3957 32.8897 51.4026 32.8806 51.3997 31.8516C51.3899 28.3497 51.3823 24.8478 51.3839 21.3458C51.3846 19.9289 51.3965 19.9187 52.7755 19.9289C53.7083 19.9358 54.6435 19.942 55.5729 20.0116C56.5901 20.0878 57.1371 20.5791 57.2098 21.5715C57.3049 22.8689 57.3429 24.1762 57.2919 25.4748C57.2782 25.8251 56.8981 26.2036 56.6096 26.4926C55.7448 27.3587 54.7898 28.1393 53.9678 29.0424C52.9982 30.1077 53.0036 31.4465 53.838 32.6243C54.3092 33.2895 54.971 33.6091 55.7584 33.696C56.028 33.7257 56.3027 33.7067 56.5747 33.7184C57.2496 33.7476 57.443 33.9302 57.4612 34.6006C57.4982 35.9613 57.5296 37.3222 57.547 38.6833C57.5549 39.3045 57.3706 39.839 56.9048 40.3077C55.9729 41.2454 55.0755 42.2191 54.1961 43.2067C53.2803 44.2352 53.1926 45.1883 53.8583 46.171C54.2687 46.7767 54.8345 47.1101 55.5684 47.1236C56.261 47.1363 56.9541 47.1263 57.818 47.1263C57.818 48.6743 57.7105 50.0806 57.8477 51.4625C57.9897 52.8943 57.5671 53.9059 56.4343 54.8013C55.3262 55.6772 54.3763 56.7532 53.3162 57.7927C53.2443 57.8698 53.2265 57.9028 53.195 57.9633C53.1625 58.0247 53.157 58.0659 53.1331 58.1045C53.1248 58.1008 53.1347 58.0996 53.1733 58.0918C53.2259 58.0559 53.2498 58.0266 53.3026 57.9905C53.3564 57.9545 53.3814 57.9251 53.4064 57.8958Z" fill="#53CFAC"/>
<path d="M59.312 52.7162C60.3821 51.7227 61.4386 50.7752 62.4468 49.7788C63.0437 49.189 63.1309 48.4374 62.8073 47.6712C62.4738 46.8814 61.8904 46.3828 61.0049 46.3008C60.637 46.2667 60.2638 46.1795 59.9021 46.2134C59.2767 46.2721 59.1532 45.9973 59.177 45.4361C59.2249 44.3094 59.184 43.179 59.2292 42.0521C59.2517 41.4925 59.1045 41.2415 58.5107 41.365C58.3128 41.4061 58.0992 41.3715 57.7974 41.3715C57.9417 41.2112 58.0195 41.1116 58.1104 41.0259C59.6237 39.5999 61.1328 38.1695 62.6552 36.7532C63.6804 35.7995 63.937 34.4431 63.2959 33.2532C62.8737 32.4697 62.2212 32.0453 61.3373 31.9845C60.8522 31.9512 60.3658 31.9287 59.8797 31.9229C59.5328 31.9187 59.3982 31.7752 59.4108 31.4245C59.436 30.7248 59.4058 30.0225 59.4476 29.3242C59.4762 28.8478 59.2537 28.6967 58.8361 28.6959C58.4881 28.6953 58.1401 28.6958 57.7921 28.6958C57.7572 28.6444 57.7224 28.593 57.6875 28.5416C60.179 26.3985 62.6705 24.2554 65.2498 22.0369C65.2681 22.3005 65.2885 22.4595 65.2889 22.6185C65.2979 25.8091 65.3048 28.9997 65.3115 32.1904C65.3131 32.934 65.312 32.9324 66.0853 32.9324C69.8992 32.9326 73.7131 32.9337 77.527 32.9344C77.7384 32.9345 77.9499 32.9344 78.1615 32.9344C78.1983 33.0225 78.2376 33.0725 78.2371 33.1219C78.2097 35.4551 78.2485 37.7917 78.1315 40.1205C77.9717 43.3046 75.631 45.9619 72.4656 46.3852C70.3578 46.667 68.2037 46.61 66.0696 46.6856C65.285 46.7134 65.2903 46.6884 65.2913 47.4867C65.2942 49.7824 65.3116 52.0783 65.2824 54.3736C65.2685 55.4665 65.1166 56.5482 64.4685 57.4843C63.4552 58.9478 61.9973 59.576 60.2744 59.61C58.6912 59.6412 58.9068 59.8139 58.8796 58.284C58.8538 56.8254 58.8317 55.3659 58.7551 53.9096C58.728 53.3933 58.8181 53.0041 59.312 52.7162Z" fill="#110C2C"/>
<path d="M100.004 31.4755C99.9549 30.0959 99.9188 28.7739 99.8541 27.4533C99.831 26.9804 99.9805 26.7929 100.479 26.8019C101.916 26.8278 103.354 26.8275 104.791 26.8022C105.307 26.7932 105.474 26.9807 105.456 27.4856C105.364 30.0706 105.227 32.6566 105.235 35.2419C105.245 38.3718 105.387 41.5013 105.465 44.6311C105.486 45.4546 105.475 45.4759 104.631 45.4891C103.27 45.5104 101.909 45.5115 100.548 45.4999C99.7891 45.4934 99.732 45.4321 99.7523 44.6988C99.8048 42.8132 99.8788 40.9281 99.932 39.0425C99.9553 38.2178 99.871 38.1201 99.0589 38.1138C97.2312 38.0998 95.4031 38.1 93.5753 38.1139C92.7561 38.1202 92.695 38.1971 92.7124 39.0444C92.751 40.9307 92.8052 42.8167 92.8436 44.703C92.8576 45.3869 92.7652 45.4914 92.0822 45.4978C90.6823 45.5108 89.2821 45.4945 87.8821 45.5018C87.3372 45.5046 87.1311 45.2719 87.1506 44.7162C87.2578 41.665 87.4051 38.6129 87.41 35.5609C87.4143 32.8785 87.2591 30.1954 87.1505 27.5135C87.1294 26.9908 87.2628 26.786 87.825 26.7992C89.3202 26.8343 90.8171 26.8253 92.3128 26.8022C92.7515 26.7955 92.8909 26.9332 92.8664 27.3699C92.7648 29.1753 92.6818 30.9817 92.6082 32.7884C92.5767 33.5608 92.6457 33.6564 93.4024 33.6644C95.3475 33.6849 97.2932 33.6831 99.2382 33.6588C99.9506 33.6499 100.062 33.488 100.048 32.7584C100.04 32.35 100.021 31.9419 100.004 31.4755Z" fill="#120D2D"/>
<path d="M198.564 45.5883C198.041 45.5632 197.575 45.5393 197.109 45.5119C196.577 45.4805 196.333 45.2487 196.336 44.6635C196.357 41.0259 196.386 37.3873 196.326 33.7505C196.292 31.6742 196.109 29.5996 195.958 27.5268C195.927 27.108 196.053 26.9555 196.437 26.9209C197.928 26.7868 199.419 26.6537 200.908 26.5028C201.335 26.4595 201.345 26.7057 201.331 27.0044C201.283 28.0341 201.222 29.0634 201.192 30.0936C201.157 31.2796 201.148 32.4663 201.133 33.6528C201.131 33.7987 201.162 33.9451 201.189 34.1887C201.576 33.9336 201.893 33.7267 202.208 33.5156C203.789 32.4553 205.474 32.0116 207.345 32.6333C208.895 33.1481 209.768 34.3263 209.768 35.952C209.768 38.8701 209.745 41.7882 209.761 44.7062C209.765 45.3012 209.562 45.5697 208.963 45.5565C207.835 45.5317 206.708 45.5215 205.581 45.5129C205.005 45.5085 204.813 45.2199 204.823 44.6626C204.862 42.5037 204.878 40.3443 204.888 38.185C204.895 36.8139 203.963 36.1722 202.654 36.6274C202.436 36.7034 202.211 36.767 202.004 36.8674C201.478 37.1222 201.161 37.4923 201.174 38.1375C201.218 40.3156 201.228 42.4944 201.245 44.6729C201.252 45.4444 201.212 45.4957 200.43 45.5457C199.829 45.5842 199.225 45.5757 198.564 45.5883Z" fill="#120D2D"/>
<path d="M127.237 44.7545C123.771 42.2109 123.852 37.1917 125.872 34.5934C127.358 32.682 130.381 31.722 132.65 32.5606C133.338 32.8145 133.935 33.3129 134.606 33.7191C134.664 33.5319 134.742 33.2576 134.834 32.9877C134.934 32.6899 135.09 32.4626 135.465 32.539C136.587 32.7668 137.708 32.9959 138.831 33.2125C139.178 33.2794 139.273 33.4689 139.207 33.7937C138.598 36.7804 138.722 39.7877 138.947 42.7995C138.996 43.4579 138.974 44.1214 139.001 44.782C139.019 45.2375 138.833 45.4759 138.363 45.4879C137.235 45.5165 136.107 45.5372 134.98 45.5969C134.541 45.6202 134.391 45.4076 134.332 45.0383C134.281 44.723 134.226 44.4083 134.149 43.9497C132.001 46.1536 129.716 46.2873 127.237 44.7545ZM129.214 39.6427C129.283 39.8029 129.339 39.9694 129.421 40.1224C130 41.2059 131.233 41.7176 132.5 41.4059C133.599 41.1357 134.323 40.1786 134.352 38.9581C134.383 37.6585 133.78 36.7685 132.56 36.4588C131.011 36.0658 129.234 36.6982 129.12 38.6861C129.104 38.9724 129.166 39.2633 129.214 39.6427Z" fill="#110D2C"/>
<path d="M155.772 34.9148C155.771 33.6007 155.771 32.3407 155.771 31.0703C154.134 31.165 152.652 31.2506 151.139 31.3382C151.139 31.1118 151.124 30.9961 151.141 30.8851C151.318 29.7168 151.51 28.5508 151.674 27.3807C151.739 26.9149 151.899 26.7357 152.424 26.7883C156.288 27.176 160.152 27.0878 164.014 26.7286C164.435 26.6895 164.859 26.6859 165.366 26.6619C165.366 26.9508 165.36 27.1774 165.366 27.4037C165.395 28.4493 165.399 29.4966 165.468 30.5396C165.5 31.0358 165.362 31.18 164.864 31.1662C163.624 31.1319 162.383 31.1549 161.005 31.1549C161.005 32.7479 160.977 34.4722 161.011 36.1953C161.067 39.0335 161.147 41.8715 161.255 44.7082C161.277 45.3035 161.074 45.5076 160.507 45.5037C159.128 45.4945 157.748 45.536 156.369 45.5121C155.514 45.4973 155.466 45.4165 155.491 44.5306C155.582 41.3432 155.678 38.1561 155.772 34.9148Z" fill="#120D2D"/>
<path d="M213.031 37.784C213.469 35.2087 214.765 33.3098 217.215 32.4302C219.597 31.5748 221.898 31.8051 223.885 33.5245C225.257 34.712 225.997 36.2364 226.056 38.0656C226.095 39.2698 225.764 39.6887 224.567 39.8108C222.555 40.0159 220.539 40.1747 218.525 40.3535C218.22 40.3807 217.914 40.4112 217.603 40.4406C217.807 41.3574 218.647 41.9636 219.839 42.1058C221.064 42.2518 222.192 41.9808 223.238 41.3393C223.469 41.1976 223.703 41.0601 223.986 40.8906C224.739 41.7002 225.243 42.6485 225.568 43.6855C225.616 43.8389 225.386 44.1351 225.216 44.2918C224.204 45.2274 222.958 45.6244 221.618 45.7716C219.789 45.9726 218 45.8528 216.348 44.9524C213.809 43.5682 212.797 41.192 212.972 38.3573C212.983 38.1828 213.008 38.0091 213.031 37.784ZM217.835 36.1052C217.668 36.509 217.463 36.9023 217.345 37.3199C217.24 37.6869 217.41 37.9281 217.835 37.8891C218.84 37.797 219.844 37.6988 220.848 37.609C221.285 37.57 221.341 37.3317 221.229 36.964C220.706 35.2433 218.692 34.9593 217.835 36.1052Z" fill="#120D2D"/>
<path d="M113.003 32.4506C115.495 31.6377 117.81 31.7799 119.822 33.5474C121.234 34.7873 121.981 36.3697 121.957 38.2761C121.944 39.3272 121.642 39.6886 120.611 39.789C118.522 39.9926 116.429 40.1672 114.338 40.3546C114.07 40.3786 113.803 40.4081 113.499 40.4387C113.611 41.119 114.035 41.4951 114.573 41.7413C116.071 42.4257 117.524 42.2088 118.935 41.4619C119.257 41.291 119.564 41.0898 119.905 40.8858C120.626 41.682 121.11 42.5838 121.445 43.5572C121.506 43.7359 121.332 44.0762 121.166 44.2387C120.146 45.2362 118.854 45.6316 117.476 45.776C115.44 45.9894 113.463 45.8065 111.715 44.6226C109.388 43.0473 108.635 40.7459 108.915 38.0708C109.189 35.4596 110.496 33.5305 113.003 32.4506ZM116.351 35.8153C114.947 34.935 113.451 35.6282 113.239 37.2471C113.181 37.6928 113.311 37.9285 113.79 37.886C114.602 37.8142 115.413 37.7486 116.224 37.6681C117.304 37.5608 117.448 37.2521 116.84 36.3445C116.723 36.1702 116.56 36.0271 116.351 35.8153Z" fill="#120D2D"/>
<path d="M176.183 42.0886C177.11 41.7313 177.985 41.3802 178.956 40.9906C179.597 41.7009 180.09 42.6343 180.43 43.6451C180.48 43.7926 180.3 44.0769 180.151 44.2219C179.131 45.2196 177.847 45.6251 176.467 45.7747C174.409 45.9979 172.412 45.8205 170.653 44.6115C168.164 42.9 167.486 40.4202 167.947 37.5913C168.77 32.5377 173.772 31.0233 177.225 32.5303C179.459 33.5055 180.962 35.8654 180.923 38.2737C180.907 39.3004 180.582 39.6952 179.578 39.7927C177.489 39.9956 175.396 40.1711 173.305 40.3586C173.036 40.3828 172.767 40.4117 172.457 40.4425C172.562 41.1149 172.991 41.4729 173.515 41.7417C174.343 42.1659 175.229 42.2037 176.183 42.0886ZM172.782 36.0096C172.582 36.4436 172.338 36.8639 172.195 37.316C172.081 37.6768 172.27 37.9262 172.69 37.8895C173.695 37.8015 174.698 37.7006 175.704 37.6137C176.134 37.5765 176.205 37.3335 176.111 36.9718C175.728 35.492 174.014 34.9545 172.782 36.0096Z" fill="#120D2D"/>
<path d="M184.612 40.523C184.633 39.5547 184.655 38.641 184.666 37.7272C184.675 37.0245 184.535 36.8901 183.822 36.8667C183.613 36.8598 183.403 36.8435 183.126 36.8277C183.126 35.772 183.104 34.7467 183.153 33.7248C183.159 33.5835 183.507 33.3741 183.718 33.3421C184.526 33.2201 184.545 33.2426 184.552 32.4189C184.563 31.3304 184.526 30.2414 184.544 29.1531C184.559 28.2254 184.639 28.1853 185.518 28.3213C186.63 28.4936 187.743 28.6622 188.86 28.7991C189.3 28.853 189.457 29.0202 189.413 29.4727C189.326 30.3816 189.27 31.2946 189.238 32.2071C189.214 32.8767 189.353 32.9924 190.015 32.972C190.772 32.9486 191.531 32.9315 192.287 32.8799C192.751 32.8482 192.84 33.0489 192.816 33.4665C192.758 34.4547 192.722 35.4455 192.72 36.4353C192.719 36.8425 192.59 36.9931 192.184 36.9812C191.387 36.9579 190.589 36.9882 189.793 36.9513C189.393 36.9328 189.263 37.1088 189.27 37.4532C189.289 38.4053 189.278 39.3606 189.355 40.3085C189.43 41.2399 190.046 41.6662 191.09 41.564C191.571 41.5169 192.045 41.3963 192.521 41.3033C192.927 41.2239 193.157 41.316 193.11 41.7994C193.034 42.5725 193.016 43.3521 192.915 44.1213C192.888 44.3275 192.691 44.5822 192.502 44.6853C190.617 45.7114 188.619 46.0006 186.533 45.4656C185.294 45.1477 184.57 44.1929 184.55 42.9094C184.538 42.1326 184.587 41.3549 184.612 40.523Z" fill="#120D2D"/>
<path d="M148.132 31.861C148.123 36.1544 148.114 40.3924 148.112 44.6305C148.112 45.4593 148.126 45.49 147.295 45.5142C146.189 45.5465 145.08 45.5493 143.974 45.5188C143.186 45.4971 143.149 45.4283 143.152 44.6588C143.169 40.2833 143.215 35.9076 143.19 31.5324C143.182 30.1764 143.01 28.8188 142.864 27.4674C142.807 26.9466 142.934 26.7768 143.467 26.7876C144.906 26.8168 146.346 26.8154 147.785 26.7873C148.248 26.7782 148.398 26.9086 148.367 27.3787C148.27 28.853 148.209 30.3299 148.132 31.861Z" fill="#110C2C"/>
<path d="M234.184 43.0213C234.221 43.6994 234.25 44.3214 234.297 44.9421C234.325 45.3134 234.167 45.4931 233.8 45.4925C232.496 45.4905 231.193 45.4881 229.89 45.4831C229.382 45.4812 229.303 45.1565 229.308 44.7357C229.331 42.8676 229.349 40.9993 229.355 39.1311C229.361 37.28 229.267 35.4363 228.786 33.6366C228.684 33.2548 228.797 33.1007 229.17 33.0427C230.457 32.8428 231.742 32.6373 233.025 32.4134C233.426 32.3433 233.603 32.486 233.647 32.8735C233.689 33.2369 233.755 33.5976 233.816 34.0002C234.466 33.6608 235.038 33.2743 235.668 33.0576C236.318 32.8341 237.021 32.747 237.708 32.6561C238.117 32.6021 238.337 32.7945 238.308 33.2775C238.235 34.5188 238.196 35.7627 238.176 37.0061C238.167 37.5006 237.925 37.6588 237.486 37.652C236.826 37.6419 236.162 37.5812 235.508 37.6376C234.511 37.7234 234.188 38.0949 234.173 39.1115C234.154 40.3956 234.178 41.6803 234.184 43.0213Z" fill="#120D2D"/>
<path d="M173.783 55.4171C173.783 56.0002 173.783 56.5249 173.783 57.0496C173.782 59.2068 172.499 60.1721 170.386 59.62C170.009 59.5215 169.851 59.3444 170.006 58.9145C170.928 58.9837 171.97 59.3973 172.691 58.4988C172.964 58.159 172.955 57.5932 173.071 57.1447C172.449 57.2674 171.96 57.4701 171.49 57.4358C170.281 57.3476 169.528 56.3066 169.645 54.9841C169.677 54.6211 169.751 54.251 169.874 53.909C170.289 52.7591 171.726 52.0399 172.932 53.0539C173.186 52.9085 173.412 52.7798 173.783 52.5681C173.783 53.6256 173.783 54.4921 173.783 55.4171ZM172.991 54.3441C173.071 53.8608 172.82 53.5781 172.414 53.3863C171.935 53.1594 171.472 53.1747 171.047 53.5052C170.265 54.1135 170.212 55.8604 170.96 56.5068C171.426 56.9103 171.949 56.8742 172.491 56.6635C172.993 56.4682 173.023 56.0701 172.996 55.6176C172.972 55.2308 172.991 54.8414 172.991 54.3441Z" fill="#5AD1B0"/>
<path d="M139.219 54.363C139.219 53.1789 139.219 52.0532 139.219 50.8833C139.482 50.8833 139.704 50.8833 140.001 50.8833C140.001 51.7712 140.001 52.6722 140.001 53.612C141.157 53.612 142.238 53.612 143.393 53.612C143.393 52.7247 143.393 51.8227 143.393 50.8806C143.689 50.8806 143.911 50.8806 144.229 50.8806C144.229 51.0626 144.229 51.2473 144.229 51.432C144.229 53.2026 144.209 54.9735 144.241 56.7435C144.252 57.3413 144.017 57.4588 143.441 57.2969C143.441 56.3593 143.441 55.3988 143.441 54.4021C142.29 54.4021 141.209 54.4021 140.05 54.4021C140.05 55.3485 140.05 56.307 140.05 57.3186C139.752 57.3335 139.529 57.3446 139.219 57.3602C139.219 56.3504 139.219 55.3859 139.219 54.363Z" fill="#56D0AE"/>
<path d="M180.089 50.8385C180.488 50.8908 180.845 50.8999 181.173 51.0021C181.981 51.2538 182.409 51.8335 182.434 52.626C182.459 53.4094 182.075 54.078 181.311 54.357C180.792 54.5466 180.224 54.6079 179.673 54.6972C179.429 54.7368 179.174 54.7039 178.859 54.7039C178.859 55.5852 178.859 56.4299 178.859 57.2572C178.098 57.4449 178.033 57.4024 178.032 56.7436C178.031 54.9771 178.031 53.2105 178.033 51.444C178.033 51.2724 178.048 51.1008 178.061 50.8376C178.732 50.8376 179.383 50.8376 180.089 50.8385ZM180.444 51.57C179.929 51.57 179.413 51.57 178.841 51.57C178.841 51.9512 178.841 52.2756 178.841 52.6C178.841 54.1008 178.841 54.1008 180.33 53.8999C181.098 53.7963 181.533 53.4043 181.59 52.7634C181.642 52.1839 181.327 51.828 180.444 51.57Z" fill="#5BD1B0"/>
<path d="M62.0786 48.9234C61.4261 50.2909 60.2715 51.1289 59.1406 52.1195C59.1406 50.4495 59.1406 48.8739 59.1406 47.2348C59.8473 47.2348 60.5098 47.1555 61.1443 47.255C61.9277 47.3778 62.2615 48.0383 62.0786 48.9234Z" fill="#140F2F"/>
<path d="M56.0297 42.8796C56.51 42.4634 56.9608 42.0763 57.4116 41.6892C57.4664 41.7108 57.5212 41.7325 57.5759 41.7541C57.5759 43.2025 57.5759 44.6509 57.5759 46.2165C56.9129 46.1863 56.1701 46.2427 55.4684 46.0988C54.4935 45.8989 54.1984 44.9661 54.8132 44.1875C55.1725 43.7325 55.6023 43.3331 56.0297 42.8796Z" fill="#56D0AE"/>
<path d="M155.012 52.9243C155.526 53.3117 155.676 53.8117 155.672 54.3854C155.666 55.1625 155.687 55.9403 155.66 56.7165C155.653 56.9303 155.517 57.1396 155.44 57.351C155.23 57.2574 155.021 57.1637 154.737 57.0372C153.811 57.5909 152.977 57.6234 152.381 57.0681C151.941 56.6586 151.77 55.8829 152.079 55.3488C152.741 54.202 153.796 54.4533 154.82 54.645C155.019 53.4043 154.545 53.1599 152.403 53.4052C152.238 53.0203 152.328 52.7919 152.771 52.7045C153.529 52.555 154.271 52.4902 155.012 52.9243ZM154.719 55.2736C154.317 55.239 153.914 55.1655 153.513 55.1794C153.013 55.1967 152.736 55.4814 152.758 56.0097C152.78 56.5182 153.093 56.8111 153.625 56.8128C154.556 56.8158 154.997 56.2594 154.719 55.2736Z" fill="#5BD1B0"/>
<path d="M187.019 56.9585C186.477 57.3349 185.943 57.5645 185.298 57.4261C184.567 57.2693 184.138 56.7929 184.096 56.0598C184.058 55.396 184.442 54.7587 185.119 54.6158C185.708 54.4917 186.333 54.5399 186.961 54.5111C187.205 53.4072 186.498 53.0525 184.606 53.4189C184.42 53.0042 184.542 52.7301 184.998 52.7002C185.552 52.6639 186.126 52.6118 186.664 52.7131C187.421 52.8559 187.805 53.412 187.813 54.1818C187.823 55.2094 187.816 56.2371 187.816 57.2783C187.423 57.4427 187.16 57.3915 187.019 56.9585ZM187.03 55.6065C186.919 55.4768 186.822 55.2546 186.694 55.2346C186.318 55.1759 185.904 55.1131 185.552 55.2155C185.297 55.2896 184.966 55.6118 184.946 55.8465C184.923 56.1224 185.126 56.5398 185.362 56.6911C186.041 57.1263 187.017 56.5199 187.03 55.6065Z" fill="#59D1AF"/>
<path d="M146.608 56.5423C146.142 55.7281 146.146 54.9076 146.389 54.0813C146.69 53.059 147.53 52.5173 148.614 52.6095C149.461 52.6815 150.044 53.3251 150.18 54.3648C150.212 54.6092 150.184 54.8614 150.184 55.1707C149.139 55.1707 148.117 55.1707 147.107 55.1707C146.913 56.5101 147.953 57.0288 149.921 56.6213C150.086 57.0199 150.01 57.2834 149.542 57.3627C148.452 57.5476 147.404 57.5777 146.608 56.5423ZM148.63 53.2992C147.742 53.1552 147.167 53.5983 147.119 54.4731C147.864 54.4731 148.608 54.4731 149.376 54.4731C149.376 53.9291 149.195 53.5402 148.63 53.2992Z" fill="#59D1AF"/>
<path d="M207.857 53.971C207.915 54.3756 207.956 54.7357 208.005 55.1654C206.889 55.1654 205.847 55.1654 204.808 55.1654C204.779 56.5657 205.597 56.9624 207.72 56.6347C207.891 57.0707 207.708 57.3414 207.28 57.3583C206.648 57.3832 205.989 57.4261 205.39 57.2731C204.988 57.1704 204.581 56.8037 204.331 56.4465C203.774 55.6472 203.929 54.0531 204.557 53.3077C205.067 52.7012 205.738 52.4946 206.499 52.6251C207.225 52.7498 207.65 53.2284 207.857 53.971ZM206.999 53.828C206.6 53.2612 206.228 53.1086 205.675 53.3189C205.164 53.5132 204.879 53.8803 204.847 54.4614C205.647 54.4614 206.389 54.4614 207.173 54.4614C207.121 54.2396 207.082 54.073 206.999 53.828Z" fill="#59D1AF"/>
<path d="M125.214 55.2679C125.122 56.2094 124.762 56.9285 123.897 57.2874C123.101 57.6173 122.334 57.5135 121.645 57.0004C120.833 56.3949 120.569 54.9514 121.045 53.8495C121.454 52.9023 122.38 52.4387 123.492 52.6239C124.409 52.7766 125.097 53.5575 125.2 54.5765C125.222 54.7879 125.212 55.0026 125.214 55.2679ZM124.391 55.5206C124.389 55.1718 124.422 54.8184 124.377 54.4753C124.288 53.7862 123.76 53.2879 123.111 53.2231C122.572 53.1694 122.024 53.5169 121.797 54.0926C121.519 54.7948 121.528 55.4988 121.903 56.1665C122.279 56.8331 123.194 57.0545 123.755 56.5679C124.03 56.3291 124.175 55.9404 124.391 55.5206Z" fill="#59D1AF"/>
<path d="M115.441 52.1003C115.2 51.7024 114.983 51.34 114.742 50.9387C115.258 50.7474 115.577 50.8244 115.834 51.2875C116.323 52.1685 116.861 53.0226 117.438 53.9867C117.988 53.0728 118.52 52.2502 118.985 51.3914C119.251 50.9016 119.57 50.7098 120.161 50.9153C119.64 51.769 119.164 52.6358 118.603 53.4441C118.026 54.2751 117.704 55.1384 117.838 56.1607C117.886 56.5229 117.846 56.8967 117.846 57.2561C117.107 57.4676 116.979 57.4131 117.047 56.7194C117.181 55.3429 116.891 54.115 116.015 53.0279C115.798 52.7578 115.646 52.4346 115.441 52.1003Z" fill="#57D0AE"/>
<path d="M130.119 55.8128C130.122 54.7732 130.122 53.7854 130.122 52.7556C130.401 52.7556 130.623 52.7556 130.879 52.7556C130.879 53.8577 130.954 54.9646 130.856 56.056C130.773 56.9902 129.899 57.5394 128.887 57.47C127.838 57.3982 127.15 56.8062 127.103 55.8296C127.054 54.8239 127.092 53.814 127.092 52.7596C127.346 52.7596 127.567 52.7596 127.88 52.7596C127.88 53.7147 127.879 54.6786 127.881 55.6426C127.882 56.1529 128.058 56.5493 128.581 56.7289C129.319 56.9824 129.883 56.6672 130.119 55.8128Z" fill="#5CD2B1"/>
<path d="M163.921 52.9134C164.374 52.5031 164.57 52.7379 164.626 53.0995C165.209 52.9276 165.754 52.671 166.315 52.6246C167.09 52.5605 167.649 53.0455 167.693 53.82C167.757 54.9573 167.709 56.1009 167.709 57.2774C167.472 57.2774 167.271 57.2774 166.994 57.2774C166.994 56.7517 166.999 56.2528 166.993 55.7541C166.987 55.2306 167.003 54.704 166.951 54.1846C166.882 53.4977 166.572 53.2109 166.017 53.23C165.379 53.2519 164.698 53.8324 164.692 54.3803C164.683 55.3287 164.69 56.2773 164.69 57.2701C164.428 57.2701 164.209 57.2701 163.914 57.2701C163.914 55.8264 163.914 54.3953 163.921 52.9134Z" fill="#54D0AD"/>
<path d="M201.673 52.9957C201.817 53.2728 202.021 53.515 202.028 53.763C202.063 54.924 202.043 56.0866 202.043 57.2798C201.815 57.2798 201.628 57.2798 201.335 57.2798C201.335 56.9201 201.342 56.5607 201.333 56.2017C201.313 55.4452 201.321 54.685 201.244 53.9339C201.192 53.4258 200.78 53.1774 200.281 53.2349C199.539 53.3203 199.029 53.8898 199.029 54.6337C199.028 55.5048 199.029 56.3759 199.029 57.2752C198.764 57.2752 198.563 57.2752 198.328 57.2752C198.328 55.7675 198.328 54.2956 198.328 52.8027C198.789 52.5055 198.898 52.8827 199.026 53.2528C199.86 52.5605 200.71 52.2946 201.673 52.9957Z" fill="#54D0AD"/>
<path d="M59.3288 36.4896C59.3681 35.6761 59.4225 34.9203 59.4385 34.1637C59.4461 33.8048 59.5995 33.6719 59.9338 33.6958C60.3774 33.7276 60.8322 33.7103 61.2621 33.8051C61.9664 33.9605 62.2276 34.5652 61.7799 35.1172C61.0677 35.9949 60.2666 36.8005 59.5031 37.6366C59.4448 37.6113 59.3864 37.586 59.3281 37.5606C59.3281 37.2227 59.3281 36.8848 59.3288 36.4896Z" fill="#140F2F"/>
<path d="M59.732 21.0553C60.1136 20.3566 60.6918 20.053 61.419 20.0284C62.0157 20.0083 62.6137 20.0243 63.3154 20.156C62.102 21.2952 60.8886 22.4344 59.6752 23.5736C59.6064 23.5523 59.5376 23.531 59.4688 23.5097C59.5492 22.705 59.6297 21.9003 59.732 21.0553Z" fill="#130E2E"/>
<path d="M195.252 57.3994C194.574 57.1933 194.318 56.7493 194.332 56.1072C194.345 55.5043 194.334 54.9009 194.334 54.2977C194.334 53.4137 194.334 53.4137 193.461 53.28C193.461 53.1209 193.461 52.9564 193.461 52.755C193.735 52.7321 193.998 52.7101 194.306 52.6844C194.323 52.2861 194.34 51.9056 194.359 51.4861C194.581 51.4861 194.783 51.4861 195.046 51.4861C195.046 51.8647 195.046 52.2444 195.046 52.6835C195.52 52.6835 195.939 52.6835 196.424 52.6835C196.435 52.9166 196.443 53.0935 196.455 53.3437C195.985 53.3437 195.568 53.3437 195.09 53.3437C195.09 54.3382 195.064 55.2651 195.102 56.1893C195.12 56.6341 195.486 56.7906 195.892 56.7997C196.083 56.8039 196.274 56.7615 196.484 56.7382C196.666 57.2239 196.498 57.4404 196 57.4274C195.767 57.4213 195.534 57.4132 195.252 57.3994Z" fill="#54D0AD"/>
<path d="M158.615 56.4551C158.615 56.7807 158.615 57.0492 158.615 57.357C158.335 57.357 158.097 57.357 157.828 57.357C157.828 55.0035 157.828 52.6671 157.828 50.3025C158.084 50.3025 158.309 50.3025 158.615 50.3025C158.615 52.3386 158.615 54.3683 158.615 56.4551Z" fill="#52CFAC"/>
<path d="M133.818 53.2763C134.336 52.8691 134.824 52.4877 135.557 52.6424C135.557 52.8465 135.557 53.0492 135.557 53.2499C133.825 53.7146 133.825 53.7146 133.825 55.5058C133.825 55.9139 133.796 56.3247 133.832 56.7295C133.884 57.3016 133.652 57.4751 133.078 57.308C133.078 55.8178 133.078 54.3136 133.078 52.8074C133.613 52.6756 133.613 52.6756 133.818 53.2763Z" fill="#5CD2B1"/>
<path d="M191.984 53.3822C190.937 53.6445 190.746 53.8882 190.745 54.9147C190.745 55.7057 190.745 56.4967 190.745 57.3234C190.484 57.3234 190.283 57.3234 190.047 57.3234C190.047 55.7897 190.047 54.2867 190.047 52.7533C190.217 52.7421 190.365 52.7323 190.545 52.7205C190.611 52.91 190.673 53.0864 190.713 53.2009C191.282 52.9592 191.841 52.7216 192.515 52.4353C192.515 52.8371 192.515 53.0365 192.515 53.2726C192.36 53.3032 192.195 53.336 191.984 53.3822Z" fill="#56D0AE"/>
<path d="M210.409 52.7275C210.555 52.9301 210.653 53.1271 210.757 53.3366C211.221 52.8649 211.733 52.5103 212.488 52.637C212.488 52.8407 212.488 53.0412 212.488 53.2762C212.381 53.2952 212.272 53.3144 212.163 53.3343C210.947 53.5553 210.715 53.8306 210.715 55.0552C210.715 55.787 210.715 56.5188 210.715 57.2798C210.449 57.2798 210.249 57.2798 209.986 57.2798C209.986 55.8345 209.978 54.4241 210.002 53.0142C210.003 52.9148 210.236 52.8193 210.409 52.7275Z" fill="#54D0AD"/>
<path d="M57.2832 31.6438C56.7935 31.7234 56.3325 31.8417 55.8879 31.797C55.3035 31.7384 55.0242 31.0562 55.417 30.6122C55.9471 30.013 56.5724 29.4981 57.1569 28.947C57.211 28.975 57.265 29.003 57.3191 29.031C57.3191 29.8906 57.3191 30.7503 57.2832 31.6438Z" fill="#56D0AE"/>
<path d="M161.668 52.9907C161.667 54.4004 161.664 55.7549 161.658 57.1094C161.658 57.1454 161.637 57.1812 161.604 57.2806C161.427 57.2901 161.226 57.3008 160.98 57.3139C160.98 55.7764 160.98 54.2796 160.98 52.6267C161.253 52.7496 161.46 52.8426 161.668 52.9907Z" fill="#52CFAC"/>
<path d="M161.593 51.5972C161.298 51.6241 160.957 51.8288 160.881 51.3584C160.795 50.8306 160.95 50.716 161.629 50.8407C161.629 51.0775 161.629 51.3204 161.593 51.5972Z" fill="#64D4B4"/>
<path d="M53.382 57.8734C53.3782 57.9247 53.3532 57.9541 53.2864 57.9765C53.2447 57.9696 53.2188 57.9425 53.2188 57.9425C53.2233 57.9023 53.2411 57.8694 53.2944 57.8264C53.3314 57.8232 53.3461 57.8373 53.382 57.8734Z" fill="#FEFFFF"/>
<path d="M53.1486 58.1059C53.1542 58.0648 53.1598 58.0237 53.1923 57.9622C53.2192 57.9418 53.2451 57.9689 53.2581 57.9825C53.2471 58.0255 53.2232 58.0549 53.172 58.0931C53.1448 58.1019 53.1486 58.1059 53.1486 58.1059Z" fill="#FEFFFF"/>
<path d="M53.1489 58.0997C53.1375 58.0987 53.1276 58.0999 53.1359 58.1036C53.1542 58.1061 53.1503 58.1021 53.1489 58.0997Z" fill="#FEFFFF"/>
<path d="M129.203 39.5948C129.166 39.2607 129.103 38.9698 129.12 38.6835C129.234 36.6956 131.011 36.0632 132.56 36.4562C133.78 36.766 134.383 37.6559 134.352 38.9555C134.323 40.176 133.599 41.1331 132.5 41.4033C131.233 41.715 130 41.2033 129.421 40.1198C129.339 39.9668 129.282 39.8004 129.203 39.5948Z" fill="#FCFCFD"/>
<path d="M217.864 36.074C218.694 34.9615 220.708 35.2456 221.231 36.9663C221.343 37.3339 221.287 37.5722 220.85 37.6112C219.845 37.701 218.842 37.7993 217.837 37.8913C217.412 37.9303 217.242 37.6892 217.346 37.3221C217.465 36.9045 217.67 36.5113 217.864 36.074Z" fill="#FAFAFB"/>
<path d="M116.389 35.8459C116.564 36.0306 116.728 36.1736 116.844 36.348C117.453 37.2555 117.309 37.5643 116.228 37.6716C115.418 37.752 114.606 37.8177 113.795 37.8895C113.315 37.932 113.185 37.6963 113.244 37.2506C113.456 35.6316 114.952 34.9384 116.389 35.8459Z" fill="#FAFAFB"/>
<path d="M172.813 35.975C174.015 34.9509 175.73 35.4884 176.113 36.9682C176.206 37.3299 176.135 37.5729 175.705 37.6101C174.7 37.697 173.696 37.7979 172.691 37.8859C172.272 37.9226 172.083 37.6732 172.197 37.3124C172.34 36.8603 172.583 36.44 172.813 35.975Z" fill="#FAFAFB"/>
<path d="M172.993 54.3972C172.993 54.8399 172.974 55.2293 172.997 55.6161C173.025 56.0686 172.995 56.4667 172.492 56.662C171.951 56.8727 171.428 56.9089 170.961 56.5053C170.213 55.859 170.266 54.112 171.049 53.5037C171.474 53.1732 171.936 53.1579 172.416 53.3848C172.821 53.5766 173.073 53.8593 172.993 54.3972Z" fill="#FCFEFD"/>
<path d="M180.49 51.5782C181.322 51.83 181.637 52.1859 181.585 52.7654C181.528 53.4063 181.094 53.7984 180.326 53.9019C178.836 54.1028 178.836 54.1028 178.836 52.6021C178.836 52.2776 178.836 51.9532 178.836 51.572C179.409 51.572 179.924 51.572 180.49 51.5782Z" fill="#F9FDFC"/>
<path d="M154.762 55.2951C154.994 56.2593 154.553 56.8158 153.622 56.8128C153.089 56.8111 152.776 56.5182 152.755 56.0096C152.733 55.4813 153.01 55.1966 153.51 55.1793C153.91 55.1655 154.314 55.2389 154.762 55.2951Z" fill="#FCFEFD"/>
<path d="M187.031 55.6592C187.018 56.5207 186.042 57.1272 185.363 56.692C185.127 56.5407 184.924 56.1233 184.947 55.8474C184.967 55.6127 185.298 55.2904 185.553 55.2163C185.905 55.1139 186.319 55.1767 186.696 55.2355C186.823 55.2555 186.92 55.4776 187.031 55.6592Z" fill="#FCFEFD"/>
<path d="M148.671 53.3096C149.193 53.5395 149.374 53.9284 149.374 54.4724C148.606 54.4724 147.862 54.4724 147.117 54.4724C147.165 53.5975 147.74 53.1545 148.671 53.3096Z" fill="#FBFEFD"/>
<path d="M207.025 53.8698C207.086 54.0756 207.125 54.2423 207.177 54.464C206.394 54.464 205.652 54.464 204.852 54.464C204.883 53.8829 205.168 53.5158 205.68 53.3215C206.233 53.1112 206.604 53.2638 207.025 53.8698Z" fill="#FBFEFD"/>
<path d="M124.383 55.5689C124.174 55.9392 124.029 56.328 123.753 56.5668C123.193 57.0534 122.277 56.8319 121.902 56.1654C121.526 55.4977 121.518 54.7937 121.795 54.0915C122.022 53.5157 122.57 53.1683 123.109 53.222C123.759 53.2868 124.286 53.7851 124.376 54.4742C124.421 54.8173 124.387 55.1707 124.383 55.5689Z" fill="#FCFEFD"/>
</g>
<defs>
<clipPath id="clip0_1_1603">
<rect width="210" height="47.4105" fill="white" transform="translate(33.6406 16.2947)"/>
</clipPath>
</defs>
</svg>
