<svg width="28" height="28" viewBox="0 0 28 28" fill="none" xmlns="http://www.w3.org/2000/svg">
<path d="M7.16333 17.4638L10.4627 20.7631C10.2474 20.986 9.98995 21.1638 9.70528 21.286C9.4206 21.4083 9.11442 21.4727 8.8046 21.4754C8.49478 21.4781 8.18753 21.419 7.90077 21.3017C7.61402 21.1844 7.35349 21.0111 7.13441 20.7921C6.91533 20.573 6.74207 20.3125 6.62475 20.0257C6.50743 19.7389 6.44839 19.4317 6.45108 19.1219C6.45377 18.812 6.51814 18.5059 6.64043 18.2212C6.76272 17.9365 6.94048 17.679 7.16333 17.4638ZM17.5082 23.6763L16.6845 24.5L3.5 11.3155L4.32367 10.4918L5.60933 10.675C6.489 10.801 7.57983 10.5326 8.0325 10.08L12.565 5.54864C13.8804 4.25797 15.6522 3.53882 17.495 3.54756C19.3378 3.55631 21.1027 4.29225 22.4058 5.59535C23.7089 6.89844 24.4448 8.6633 24.4536 10.5061C24.4623 12.349 23.7432 14.1207 22.4525 15.4361L17.92 19.9686C17.4673 20.4213 17.199 21.5121 17.325 22.3918L17.5082 23.6763Z" fill="#0C091F"/>
</svg>
