<svg width="28" height="29" viewBox="0 0 28 29" fill="none" xmlns="http://www.w3.org/2000/svg">
<path d="M20.593 7.90573C19.7296 7.03638 18.7026 6.34655 17.5712 5.876C16.4399 5.40545 15.2266 5.16349 14.0014 5.16406C8.84469 5.16406 4.67969 9.34073 4.67969 14.4974C4.67969 19.6541 8.84469 23.8307 14.0014 23.8307C18.353 23.8307 21.9814 20.8557 23.0197 16.8307H20.593C20.1124 18.1952 19.2203 19.3768 18.0396 20.2127C16.8589 21.0486 15.448 21.4974 14.0014 21.4974C10.1397 21.4974 7.00135 18.3591 7.00135 14.4974C7.00135 10.6357 10.1397 7.4974 14.0014 7.4974C15.938 7.4974 17.6647 8.3024 18.9247 9.57406L15.168 13.3307H23.3347V5.16406L20.593 7.90573Z" fill="#0F0B28"/>
</svg>
