<svg width="12" height="14" viewBox="0 0 12 14" fill="none" xmlns="http://www.w3.org/2000/svg">
<path d="M6.35355 0.740197C6.15829 0.544934 5.84171 0.544934 5.64645 0.740197L2.46447 3.92218C2.2692 4.11744 2.2692 4.43402 2.46447 4.62928C2.65973 4.82455 2.97631 4.82455 3.17157 4.62928L6 1.80086L8.82843 4.62928C9.02369 4.82455 9.34027 4.82455 9.53553 4.62928C9.7308 4.43402 9.7308 4.11744 9.53553 3.92218L6.35355 0.740197ZM5.5 11.0938C5.5 11.3699 5.72386 11.5938 6 11.5938C6.27614 11.5938 6.5 11.3699 6.5 11.0938H5.5ZM1.5 8.09375C1.5 7.81761 1.27614 7.59375 1 7.59375C0.723858 7.59375 0.5 7.81761 0.5 8.09375H1.5ZM1 13.0938H0.5V13.5938H1V13.0938ZM11.5 13.0938V13.5938H12V13.0938H11.5ZM12 8.09375C12 7.81761 11.7761 7.59375 11.5 7.59375C11.2239 7.59375 11 7.81761 11 8.09375H12ZM5.5 1.09375V11.0938H6.5V1.09375H5.5ZM0.5 8.09375V13.0938H1.5V8.09375H0.5ZM1 13.5938H11.5V12.5938H1V13.5938ZM12 13.0938V8.09375H11V13.0938H12Z" fill="black"/>
</svg>
